<svg width="20" height="20" viewBox="0 0 20 20" fill="none" xmlns="http://www.w3.org/2000/svg">
<path fill-rule="evenodd" clip-rule="evenodd" d="M3.17188 5.172C3.92199 4.42212 4.93922 4.00086 5.99988 4.00086C7.06053 4.00086 8.07777 4.42212 8.82788 5.172L9.99988 6.343L11.1719 5.172C11.5409 4.78996 11.9822 4.48523 12.4703 4.2756C12.9583 4.06596 13.4832 3.95562 14.0143 3.951C14.5454 3.94639 15.0721 4.04759 15.5637 4.24872C16.0553 4.44984 16.5019 4.74685 16.8775 5.12242C17.253 5.49799 17.55 5.9446 17.7512 6.43619C17.9523 6.92777 18.0535 7.45449 18.0489 7.98561C18.0443 8.51673 17.9339 9.04161 17.7243 9.52962C17.5146 10.0176 17.2099 10.459 16.8279 10.828L9.99988 17.657L3.17188 10.828C2.42199 10.0779 2.00073 9.06066 2.00073 8C2.00073 6.93935 2.42199 5.92211 3.17188 5.172Z" fill="#3F3F46"/>
</svg>
